<svg width="20" height="20" viewBox="0 0 20 20" fill="none" xmlns="http://www.w3.org/2000/svg">
<g clip-path="url(#clip0_1507_739)">
<path d="M4 10.1719C4 10.4648 4.10547 10.7227 4.32812 10.9453L13.6211 20.0273C13.8203 20.2383 14.0781 20.3438 14.3828 20.3438C14.9922 20.3438 15.4609 19.8867 15.4609 19.2773C15.4609 18.9727 15.332 18.7148 15.1445 18.5156L6.61328 10.1719L15.1445 1.82812C15.332 1.62891 15.4609 1.35938 15.4609 1.06641C15.4609 0.457031 14.9922 0 14.3828 0C14.0781 0 13.8203 0.105469 13.6211 0.304688L4.32812 9.39844C4.10547 9.60938 4 9.87891 4 10.1719Z" fill="white"/>
</g>
<defs>
<clipPath id="clip0_1507_739">
<rect width="20" height="20" fill="white"/>
</clipPath>
</defs>
</svg>
