<svg width="20" height="20" viewBox="0 0 20 20" fill="none" xmlns="http://www.w3.org/2000/svg">
<path d="M7.76397 13.7511L5.07348 11.0604L17.4242 11.0604C17.9262 11.0604 18.3332 10.6534 18.3332 10.1513C18.3332 9.64928 17.9262 9.24225 17.4242 9.24225L5.07354 9.24225L7.76397 6.55183C7.94148 6.37431 8.03027 6.14165 8.03027 5.90904C8.03027 5.67644 7.94154 5.44371 7.76397 5.26625C7.40894 4.91122 6.83336 4.91122 6.47833 5.26625L2.23615 9.50837C2.21488 9.52964 2.19482 9.55201 2.17573 9.57528C2.16724 9.58558 2.15991 9.59649 2.15197 9.60698C2.14215 9.62013 2.13197 9.63298 2.12288 9.64661C2.11427 9.65946 2.10682 9.67286 2.09888 9.68601C2.09154 9.69825 2.08385 9.71019 2.07712 9.7228C2.06991 9.73631 2.06385 9.75013 2.05736 9.76389C2.05118 9.77704 2.04458 9.79001 2.039 9.80346C2.03348 9.81673 2.02906 9.83025 2.02427 9.84376C2.01906 9.85825 2.01348 9.87261 2.009 9.88746C2.00494 9.90086 2.00203 9.91437 1.99858 9.92789C1.9947 9.94316 1.99045 9.95825 1.98736 9.97376C1.98427 9.98922 1.98251 10.0049 1.98027 10.0203C1.97827 10.0341 1.97567 10.0477 1.97427 10.0617C1.97148 10.09 1.97015 10.1184 1.96997 10.1467C1.96997 10.1482 1.96973 10.1498 1.96973 10.1513C1.96973 10.1533 1.97003 10.1553 1.97003 10.1573C1.97021 10.1852 1.97148 10.2131 1.97427 10.2408C1.97567 10.255 1.97827 10.2689 1.98033 10.2828C1.98258 10.2981 1.98433 10.3135 1.9873 10.3287C1.99039 10.3444 1.9947 10.3596 1.99864 10.375C2.00203 10.3884 2.00494 10.4018 2.00894 10.415C2.01348 10.43 2.01906 10.4445 2.02433 10.4592C2.02912 10.4725 2.03348 10.4859 2.03894 10.4991C2.04458 10.5127 2.05118 10.5257 2.05748 10.539C2.06391 10.5526 2.06997 10.5664 2.07712 10.5798C2.08391 10.5924 2.09161 10.6044 2.09894 10.6167C2.10682 10.6299 2.11427 10.6432 2.12288 10.656C2.13185 10.6695 2.14185 10.6821 2.15161 10.6951C2.15967 10.7059 2.16718 10.717 2.17585 10.7275C2.19397 10.7496 2.21324 10.7709 2.23336 10.7912C2.23433 10.7921 2.23512 10.7932 2.23603 10.7941L6.47827 15.0367C6.8333 15.3916 7.40888 15.3917 7.76391 15.0367C8.119 14.6817 8.11888 14.1061 7.76397 13.7511Z" fill="#E2E2E2"/>
</svg>
